<svg width="14" height="18" viewBox="0 0 14 18" fill="none" xmlns="http://www.w3.org/2000/svg">
<path d="M3.66602 8.16667V4.83333C3.66602 3.94928 4.01721 3.10143 4.64233 2.47631C5.26745 1.85119 6.11529 1.5 6.99935 1.5C7.8834 1.5 8.73125 1.85119 9.35637 2.47631C9.98149 3.10143 10.3327 3.94928 10.3327 4.83333V8.16667M1.16602 9.83333C1.16602 9.39131 1.34161 8.96738 1.65417 8.65482C1.96673 8.34226 2.39065 8.16667 2.83268 8.16667H11.166C11.608 8.16667 12.032 8.34226 12.3445 8.65482C12.6571 8.96738 12.8327 9.39131 12.8327 9.83333V14.8333C12.8327 15.2754 12.6571 15.6993 12.3445 16.0118C12.032 16.3244 11.608 16.5 11.166 16.5H2.83268C2.39065 16.5 1.96673 16.3244 1.65417 16.0118C1.34161 15.6993 1.16602 15.2754 1.16602 14.8333V9.83333ZM6.16602 12.3333C6.16602 12.5543 6.25381 12.7663 6.41009 12.9226C6.56637 13.0789 6.77834 13.1667 6.99935 13.1667C7.22036 13.1667 7.43232 13.0789 7.58861 12.9226C7.74489 12.7663 7.83268 12.5543 7.83268 12.3333C7.83268 12.1123 7.74489 11.9004 7.58861 11.7441C7.43232 11.5878 7.22036 11.5 6.99935 11.5C6.77834 11.5 6.56637 11.5878 6.41009 11.7441C6.25381 11.9004 6.16602 12.1123 6.16602 12.3333Z" stroke="white" stroke-width="1.5" stroke-linecap="round" stroke-linejoin="round"/>
</svg>
