<svg width="20" height="20" viewBox="0 0 20 20" fill="none" xmlns="http://www.w3.org/2000/svg">
<path d="M2.5 10.8333H17.5M6.66667 17.5H13.3333M8.33333 14.1667L7.91667 17.5M11.6667 14.1667L12.0833 17.5M2.5 3.33333C2.5 3.11232 2.5878 2.90036 2.74408 2.74408C2.90036 2.5878 3.11232 2.5 3.33333 2.5H16.6667C16.8877 2.5 17.0996 2.5878 17.2559 2.74408C17.4122 2.90036 17.5 3.11232 17.5 3.33333V13.3333C17.5 13.5543 17.4122 13.7663 17.2559 13.9226C17.0996 14.0789 16.8877 14.1667 16.6667 14.1667H3.33333C3.11232 14.1667 2.90036 14.0789 2.74408 13.9226C2.5878 13.7663 2.5 13.5543 2.5 13.3333V3.33333Z" stroke="white" stroke-width="1.5" stroke-linecap="round" stroke-linejoin="round"/>
</svg>
